<?xml version="1.0" encoding="utf-8"?>
<!-- Generator: Adobe Illustrator 22.1.0, SVG Export Plug-In . SVG Version: 6.00 Build 0)  -->
<svg version="1.1" id="Layer_1" xmlns="http://www.w3.org/2000/svg" xmlns:xlink="http://www.w3.org/1999/xlink" x="0px" y="0px"
	 viewBox="0 0 32 32" style="enable-background:new 0 0 32 32;" xml:space="preserve">
<title>typescript</title>
<path d="M0,16v16h32V0H0V16z M25.8,14.7c0.8,0.2,1.4,0.6,2,1.2c0.3,0.3,0.7,0.9,0.8,1c0,0-1.4,1-2.2,1.5c0,0-0.2-0.1-0.3-0.3
	c-0.4-0.6-0.8-0.9-1.5-0.9c-1-0.1-1.6,0.4-1.6,1.3c0,0.2,0,0.4,0.1,0.6c0.2,0.4,0.6,0.7,1.9,1.2c2.3,1,3.3,1.6,3.9,2.6
	c0.7,1,0.8,2.7,0.4,3.9c-0.5,1.3-1.8,2.2-3.5,2.5c-0.5,0.1-1.8,0.1-2.4,0c-1.3-0.2-2.5-0.9-3.3-1.7c-0.3-0.3-0.9-1.2-0.8-1.2
	c0,0,0.1-0.1,0.3-0.2s0.7-0.4,1.2-0.7l0.9-0.5l0.2,0.3c0.3,0.4,0.9,1,1.2,1.2c1,0.5,2.4,0.5,3.1-0.2c0.3-0.2,0.4-0.6,0.4-1
	c0-0.4,0-0.5-0.2-0.8c-0.2-0.4-0.8-0.7-2.2-1.3c-1.7-0.7-2.4-1.2-3-1.9c-0.4-0.5-0.7-1-0.9-1.6c-0.1-0.5-0.2-1.6-0.1-2
	c0.3-1.6,1.5-2.7,3.3-3C23.9,14.5,25.2,14.6,25.8,14.7L25.8,14.7z M18.3,16.1l0,1.3h-4.2v11.8h-2.9V17.4H7v-1.3c0-0.7,0-1.3,0-1.3
	c0,0,2.5,0,5.6,0l5.6,0L18.3,16.1z"/>
</svg>
